<?xml version="1.0" standalone="no"?><!DOCTYPE svg PUBLIC "-//W3C//DTD SVG 1.1//EN" "http://www.w3.org/Graphics/SVG/1.1/DTD/svg11.dtd"><svg t="1500130402869" class="icon" style="" viewBox="0 0 1024 1024" version="1.1" xmlns="http://www.w3.org/2000/svg" p-id="2898" xmlns:xlink="http://www.w3.org/1999/xlink" width="200" height="200"><defs><style type="text/css"></style></defs><path d="M749.236268 164.877839V72.358929C749.236268 32.436968 716.7993 0 676.877339 0H347.121661c-39.921961 0-72.358929 32.436968-72.358929 72.358929v92.51891H0v89.824912h109.884893v696.93832c0 39.921961 32.436968 72.358929 72.358929 72.358929h659.411356c39.921961 0 72.358929-32.436968 72.358929-72.358929V254.602751H1023.999v-89.824912H749.236268v0.1z m-89.824912-75.052927v75.052927H364.587644V89.824912h294.823712zM199.709805 934.174088V254.602751h624.57939v679.572337H199.709805z m459.701551-604.51841h89.824912v474.472537h-89.824912V329.655678z m-384.648624 0h89.824912v474.472537h-89.824912V329.655678z m192.324812 0h89.824912v474.472537h-89.824912V329.655678z" fill="#666666" p-id="2899"></path></svg>