<?xml version="1.0" standalone="no"?><!DOCTYPE svg PUBLIC "-//W3C//DTD SVG 1.1//EN" "http://www.w3.org/Graphics/SVG/1.1/DTD/svg11.dtd"><svg t="1502294816747" class="icon" style="" viewBox="0 0 1024 1024" version="1.1" xmlns="http://www.w3.org/2000/svg" p-id="998" xmlns:xlink="http://www.w3.org/1999/xlink" width="200" height="200"><defs><style type="text/css"></style></defs><path d="M838.71744 456.76544c-14.80704 0-26.78784 11.93984-26.78784 26.66496l0 337.59232c0 40.8576-33.3824 74.07616-74.38336 74.07616L194.64192 895.09888c-41.02144 0-74.40384-33.21856-74.40384-74.07616L120.23808 280.35072c0-40.83712 33.3824-74.09664 74.40384-74.09664l425.14432 0c14.76608 0 26.76736-11.91936 26.76736-26.64448s-12.00128-26.66496-26.76736-26.66496L194.64192 152.94464c-70.53312 0-127.93856 57.15968-127.93856 127.40608l0 540.65152c0 70.2464 57.38496 127.40608 127.93856 127.40608l542.90432 0c70.51264 0 127.91808-57.15968 127.91808-127.40608L865.46432 483.40992C865.4848 468.70528 853.48352 456.76544 838.71744 456.76544zM433.64352 361.10336c0-14.72512-11.9808-26.66496-26.76736-26.66496l-182.76352 0c-14.78656 0-26.76736 11.93984-26.76736 26.66496 0 14.70464 11.9808 26.64448 26.76736 26.64448l182.76352 0C421.66272 387.74784 433.64352 375.808 433.64352 361.10336zM224.11264 479.17056c-14.78656 0-26.76736 11.93984-26.76736 26.66496S209.32608 532.48 224.11264 532.48l129.20832 0c14.78656 0 26.76736-11.91936 26.76736-26.64448s-11.9808-26.66496-26.76736-26.66496L224.11264 479.17056zM954.4704 182.00576l-81.87904-81.55136c-16.83456-16.7936-46.26432-16.7936-63.09888 0l-100.80256 100.39296 144.95744 144.36352 100.864-100.39296C971.8784 227.45088 971.85792 199.29088 954.4704 182.00576zM853.66784 269.824l-69.26336-68.97664 56.64768-56.44288 69.28384 68.99712L853.66784 269.824zM390.67648 657.89952l174.10048-25.04704 240.61952-239.06304c10.48576-10.40384 10.50624-27.25888 0.04096-37.6832-10.40384-10.4448-27.36128-10.48576-37.84704-0.04096L539.56608 582.63552l-82.20672 11.81696 15.58528-81.36704L701.44 286.1056c10.46528-10.40384 10.50624-27.25888 0.04096-37.70368-10.42432-10.42432-27.36128-10.42432-37.84704-0.04096L423.44448 486.97344 390.67648 657.89952z" p-id="999"></path></svg>