<?xml version="1.0" standalone="no"?><!DOCTYPE svg PUBLIC "-//W3C//DTD SVG 1.1//EN" "http://www.w3.org/Graphics/SVG/1.1/DTD/svg11.dtd"><svg t="1500130318762" class="icon" style="" viewBox="0 0 1024 1024" version="1.1" xmlns="http://www.w3.org/2000/svg" p-id="1011" xmlns:xlink="http://www.w3.org/1999/xlink" width="200" height="200"><defs><style type="text/css"></style></defs><path d="M67.490909 272.290909m-67.490909 0a67.490909 67.490909 0 1 0 134.981818 0 67.490909 67.490909 0 1 0-134.981818 0Z" p-id="1012"></path><path d="M67.490909 530.618182m-67.490909 0a67.490909 67.490909 0 1 0 134.981818 0 67.490909 67.490909 0 1 0-134.981818 0Z" p-id="1013"></path><path d="M67.490909 788.945455m-67.490909 0a67.490909 67.490909 0 1 0 134.981818 0 67.490909 67.490909 0 1 0-134.981818 0Z" p-id="1014"></path><path d="M977.454545 321.163636H281.6c-25.6 0-46.545455-20.945455-46.545455-46.545454v-4.654546c0-25.6 20.945455-46.545455 46.545455-46.545454H977.454545c25.6 0 46.545455 20.945455 46.545455 46.545454v4.654546c0 25.6-20.945455 46.545455-46.545455 46.545454zM807.563636 579.490909H281.6c-25.6 0-46.545455-20.945455-46.545455-46.545454v-4.654546c0-25.6 20.945455-46.545455 46.545455-46.545454h528.290909c25.6 0 46.545455 20.945455 46.545455 46.545454v4.654546c-2.327273 25.6-23.272727 46.545455-48.872728 46.545454zM977.454545 837.818182H281.6c-25.6 0-46.545455-20.945455-46.545455-46.545455v-4.654545c0-25.6 20.945455-46.545455 46.545455-46.545455H977.454545c25.6 0 46.545455 20.945455 46.545455 46.545455v4.654545c0 25.6-20.945455 46.545455-46.545455 46.545455z" p-id="1015"></path></svg>