<?xml version="1.0" standalone="no"?><!DOCTYPE svg PUBLIC "-//W3C//DTD SVG 1.1//EN" "http://www.w3.org/Graphics/SVG/1.1/DTD/svg11.dtd"><svg t="1500130419725" class="icon" style="" viewBox="0 0 1024 1024" version="1.1" xmlns="http://www.w3.org/2000/svg" p-id="3606" xmlns:xlink="http://www.w3.org/1999/xlink" width="200" height="200"><defs><style type="text/css"></style></defs><path d="M31.6 0h410.2c41.8 4 31.6 76.6 31.6 123.6v224c0 48.6 9.2 108.4-23.4 122.2-21.2 9-78.4 2.8-106 2.8H126.6c-50.2 0-119 11.8-126.6-31.2V31.2C5.6 16 15.6 4.8 31.6 0zM88 92.4v292h296v-296H89.4c-1.6 0.2-1.4 2-1.4 4zM582.2 0h410.2c16.8 6.2 28.2 17.4 31.6 36.6v399.2c-3.8 16.6-12.6 30.8-29 35.4-26.8 7.4-71.2 1.4-103.2 1.4H681.2c-31.8 0-78.8 6.6-104.6-1.4-36.4-11.2-26.2-81.4-26.2-130.4V131.6C550.6 75.2 538 8 582.2 0z m56.4 92.4v292h296v-296H640c-1.6 0.2-1.4 2-1.4 4zM223 178c41.2-7.6 73.6 19.8 74.4 57 1 49.2-50 76-89.4 55.6-45.4-23.4-42.4-102 15-112.6z m550.6 0c97-17.8 95.2 133.8 0 118.2-60.6-10-62.6-106.8 0-118.2zM439 1024h-406c-16.8-5-28.2-15.6-33-32.6V582.6c4-12 13.2-26 27.6-29.8 27-7.4 71-1.4 103.2-1.4h210.6c31.2 0 76.4-6.8 104.6 1.4 38.2 11.2 27.6 80 27.6 129v216c-0.2 52.8 11.4 121.4-34.6 126.2zM88 643.8v292h296v-296H89.4c-1.6 0-1.4 2-1.4 4zM1024 588v114c-3.2 38.4-0.4 82.8-1.4 123.6H729.4v-66.6c-27.6-3.2-61-0.4-90.8-1.4-3.2 86-0.4 178-1.4 266.2h-53.6c-46.2-9.2-33-77.4-33-131.8V681.4c0-31.6-6.4-79.2 1.4-104.6 9.4-30.4 50.2-25.8 90.8-25.8h199.6v180.6h92.2c1-59.8-1.8-123.2 1.4-180.6 44.2-2.2 85.4-1.6 88 37z m-794.2 140c44-4.8 80.4 37 63.4 82.8-23.6 63.6-136.8 39.8-115.6-40.8 5.8-22.2 22.8-38.8 52.2-42z m598.8 296h-99c1-34.8-1.8-73.4 1.4-106h97.8c-0.2 35.4-0.2 70.6-0.2 106z m195.4-106v69.2c-3.8 19.4-15.2 31.2-33 36.6h-70.2c1-34.8-1.8-73.4 1.4-106 33.8 0.2 67.8 0.2 101.8 0.2z" fill="#383838" p-id="3607"></path></svg>